<svg id="Layer_1" data-name="Layer 1" xmlns="http://www.w3.org/2000/svg" viewBox="0 0 159.49 159.54"><defs><style>.cls-1{fill:#ffcb04;}.cls-2{fill:#3601ff;}.cls-3{fill:#fff;}</style></defs><path class="cls-1" d="M20,27.67c15-17.52,34.63-23,40.9-24.6C66.87,1.49,98.42-6.8,127,13c23.11,16,29.31,40,30.67,46,9.27,40.92-19.47,71.76-22.37,74.76a85.61,85.61,0,0,1-48.88,24.92c-7.28,1-39.62,4.61-63.26-16.61C-8.29,113.83-6.08,58.13,20,27.67Z"/><path class="cls-2" d="M44.47,100.37c-5.33,0-9.31-2.93-12.33-5.15-2.55-1.87-4.21-3-6.1-3.14A9.36,9.36,0,0,0,20.42,94a8.23,8.23,0,0,1-9-13.76,25.37,25.37,0,0,1,15.66-4.53c6.82.42,11.45,3.82,14.82,6.31a31.55,31.55,0,0,0,2.68,1.83,4,4,0,0,0,1.76-1.94c.42-1.36-3.35-6-5.6-8.83-5.5-6.8-13-16.12-12.3-29C28.78,37.44,31,32,34.92,27.83a24.14,24.14,0,0,1,23.84-6.49c10.36,3.1,14.56,12.88,17.63,20A71,71,0,0,1,81.21,58.9c.9,5.34,1.36,7.6,3.69,9.86a6.43,6.43,0,0,0,3.3,2c.27,0,2.44.1,3.49-1,.9-.94.94-2.89.9-4.65-.06-3.22-1-4.78-3-7.9A42.32,42.32,0,0,1,83.1,41.78c-.83-4.22-3-15.44,4.32-22.94a18.18,18.18,0,0,1,23-2.76c6.62,4,9.32,10,11.28,14.42,1,2.35,2,4.57,3.1,5.19s3.53.47,6.52-.47a8.23,8.23,0,0,1,4.91,15.71c-7.78,2.43-14.43,2.08-19.76-1-5.59-3.28-7.92-8.48-9.79-12.67-1.63-3.64-2.66-5.77-4.77-7a3.28,3.28,0,0,0-1.33-.53,2.66,2.66,0,0,0-1.43.72c-.39.4-1.16,2,.08,8.26a26,26,0,0,0,4.27,9.86c2.39,3.81,5.37,8.55,5.52,16.34.06,2.84.2,10.41-5.46,16.33-5.17,5.4-12.63,6.58-17.46,5.94A22.58,22.58,0,0,1,73.4,80.54c-6.24-6.1-7.35-12.6-8.41-18.89a55.75,55.75,0,0,0-3.72-13.8C59.19,43,57,38,54.05,37.1a7.86,7.86,0,0,0-7.2,2.06c-1.79,1.88-2,4.73-2,5.8-.36,6.55,4,12,8.68,17.74,5.41,6.7,11.54,14.3,8.51,24A20,20,0,0,1,47.27,100.1,14.64,14.64,0,0,1,44.47,100.37Z"/><path d="M39.11,115.61c1.76-5.32,7.51-8.11,8.24-8.45,5.39-2.53,9.41-.61,16.45-.66,8,0,13.78-2.29,20.12-4.74a97.93,97.93,0,0,0,25.29-15.1c5.13-4.34,7.53-7.39,12.82-8.47,1.11-.22,8.15-1.54,13.18,2.5,6.92,5.55,5,17.23,4.18,22.44-2.16,13.35-10,22.11-13.27,25.66-12.86,14-29,17.77-36.07,18.88s-19.27,3-31.55-3.57C47.64,138.28,35.89,125.32,39.11,115.61Z"/><path class="cls-3" d="M68.64,138.42a41.7,41.7,0,0,0,8.55,1.21c1,0,2.43.05,4.13-.06a42.14,42.14,0,0,0,7.55-1.18,17.16,17.16,0,0,0-4.1-4.68c-1.23-1-3.66-2.84-6.46-2.93C74.54,130.66,70.76,133.79,68.64,138.42Z"/><path class="cls-3" d="M98.46,135.76a76,76,0,0,0,17.05-9,8.11,8.11,0,0,0-4.35-4.2c-4.79-1.72-11,2.07-12.71,7.15A10.36,10.36,0,0,0,98.46,135.76Z"/><path class="cls-3" d="M120.23,123.12a11.79,11.79,0,0,1-.58-6.05c.27-1.54.88-5.22,3.81-6.36a6.37,6.37,0,0,1,5,.45,21.33,21.33,0,0,1-8.28,12Z"/><path class="cls-3" d="M103.29,100.94q3.34-2.35,6.81-5,4.31-3.28,8.14-6.52a15.34,15.34,0,0,1,2.18,4.76c.53,2,1.72,6.56-1.06,10.12a9.07,9.07,0,0,1-7.32,3.42A9.78,9.78,0,0,1,103.29,100.94Z"/><path class="cls-3" d="M78.42,112.09c3.06-1,6.28-2.07,9.64-3.39,3.18-1.24,6.14-2.53,8.9-3.83a11.71,11.71,0,0,1,1.28,7.6A11,11,0,0,1,93,120.09a10,10,0,0,1-7.78.9A10.42,10.42,0,0,1,78.42,112.09Z"/><path class="cls-3" d="M74.62,112.62a12.63,12.63,0,0,1-3.18,9.11c-.55.59-4.07,4.28-8.58,3.82-4.79-.5-9.15-5.52-9.52-12.27a68.3,68.3,0,0,0,21.28-.66Z"/></svg>