<svg id="Layer_1" data-name="Layer 1" xmlns="http://www.w3.org/2000/svg" viewBox="0 0 484.93 100.99"><defs><style>.cls-1{fill:none;stroke:#3601ff;stroke-linecap:round;stroke-linejoin:round;stroke-width:21px;}</style></defs><path class="cls-1" d="M58.19,23.19c-1.37-1.23-9.74-8.52-21.32-7-1.63.21-15.13,2.16-18.85,13-1.58,4.63-1.39,10.89,2,15.31s9.23,5.65,15.89,7c6,1.19,7.25.24,11.64,1.86,1.91.7,7.83,2.89,10.63,7.56,4.54,7.56.06,20.22-7.21,25.73-9.58,7.25-27.34,4.6-40.48-9.42"/><path class="cls-1" d="M95.69,55c-.45-12,3.37-32.3,17.67-37.62a21.6,21.6,0,0,1,15.17.21c15.2,6.41,15.53,30.47,15.59,34.92.06,4.64.39,28.89-14.76,35.54-8,3.51-16,.23-17-.21C96.67,81.16,95.81,58.36,95.69,55Z"/><path class="cls-1" d="M176.69,87.67c-.56-31.47,1.29-54.75,4.68-61.22a13.65,13.65,0,0,1,5-5.46h0c3.41-2.72,10.47-1,11.6-.69,11.33,3.55,4.21,55,22.8,63.61,3.51,1.62,8.49,2,11.95-.19,5.44-3.41,5.62-12.08,5.62-19.33,0-17.45-.19-32.67-.45-46"/><path class="cls-1" d="M274.3,18.44c-1.54,32.46,3.41,56.31,9.78,61.87A23.43,23.43,0,0,0,296,86.07a19,19,0,0,0,6.08-.45,25.15,25.15,0,0,0,11.15-7c5.69-6,8.72-30.93,4.58-64.1"/><path class="cls-1" d="M400.86,12.23c-7.11-.88-33-3.42-42.53,10.74-2.63,3.91-3.41,8.19-3.76,24.27s.06,29.42.55,39.29"/><path class="cls-1" d="M360.14,52.9l27.72-.75"/><path class="cls-1" d="M430.28,12.86c-.3,3.26-.87,13.85,6.13,23.35A31.53,31.53,0,0,0,446.26,45a33.35,33.35,0,0,0,22.24,3.46"/><path class="cls-1" d="M473.38,10.5c3.27,25.29-1.82,43.23-5.29,52.44-4.25,11.25-8.52,16-12.11,18.94-10.3,8.45-22.76,8.49-27.55,8.25"/></svg>